# xmcd CD database file
#
# Track frame offsets:
#	150
#	20007
#	37178
#	55357
#	74994
#	93865
#	108014
#	120289
#	135302
#	154365
#	166246
#	181383
#
# Disc length: 2738 seconds
#
# Revision: 5
# Processed by: cddbd v1.5.1PL2 Copyright (c) Steve Scherf et al.
# Submitted via: CDex 1.51
#
DISCID=a10ab00c
DTITLE=La vie d'Aline - En saluant le destin...
DYEAR=2005
DGENRE=Jazz
TTITLE0=Tania
TTITLE1=Une île du bout du nord
TTITLE2=Germain
TTITLE3=Un chant de coton
TTITLE4=Venu de si loin
TTITLE5=Tellement de choses à dire
TTITLE6=Beef and Blues
TTITLE7=Lui seul
TTITLE8=Lever de rideau
TTITLE9=Le pantin
TTITLE10=Je ne suis pas né soldat
TTITLE11=1943
EXTD=YEAR: 2005
EXTT0=
EXTT1=
EXTT2=
EXTT3=
EXTT4=
EXTT5=
EXTT6=
EXTT7=
EXTT8=
EXTT9=
EXTT10=
EXTT11=
PLAYORDER=
